<svg width="24" height="24" viewBox="0 0 24 24" fill="none" xmlns="http://www.w3.org/2000/svg">
<path d="M4.98298 7.19704C6.19138 7.19704 7.17098 6.21744 7.17098 5.00904C7.17098 3.80065 6.19138 2.82104 4.98298 2.82104C3.77458 2.82104 2.79498 3.80065 2.79498 5.00904C2.79498 6.21744 3.77458 7.19704 4.98298 7.19704Z" fill="black"/>
<path d="M9.23697 8.85505V20.9941H13.006V14.9911C13.006 13.4071 13.304 11.8731 15.268 11.8731C17.205 11.8731 17.229 13.6841 17.229 15.0911V20.9951H21V14.3381C21 11.0681 20.296 8.55505 16.474 8.55505C14.639 8.55505 13.409 9.56205 12.906 10.5151H12.855V8.85505H9.23697V8.85505ZM3.09497 8.85505H6.86997V20.9941H3.09497V8.85505Z" fill="black"/>
</svg>
