<svg width="592" height="489" viewBox="0 0 592 489" fill="none" xmlns="http://www.w3.org/2000/svg">
<path d="M250.571 365.7H341.429V396H250.571V365.7ZM370.291 270.437C385.888 252.166 402 233.274 402 199.05C402 140.586 354.436 93 296 93C237.564 93 190 140.586 190 199.05C190 233.668 206.157 252.499 221.815 270.709C227.236 277.042 232.854 283.602 238.23 291.147C240.411 294.268 243.984 306.236 247.179 320.25H235.429V350.55H356.571V320.25H344.851C348.076 306.206 351.665 294.207 353.831 291.086C359.161 283.466 364.824 276.845 370.291 270.437ZM329.042 273.664C322.47 283.011 316.988 305.1 313.808 320.25H278.207C275.042 305.07 269.545 282.936 262.898 273.588C257.215 265.776 251.172 258.233 244.787 250.984C230.038 233.804 220.286 222.442 220.286 199.05C220.286 157.281 254.251 123.3 296 123.3C337.749 123.3 371.714 157.281 371.714 199.05C371.714 222.093 361.977 233.501 347.259 250.757C341.61 257.393 335.205 264.892 329.042 273.664Z" fill="#3D7DDD"/>
</svg>
