<svg width="592" height="489" viewBox="0 0 592 489" fill="none" xmlns="http://www.w3.org/2000/svg">
<rect x="209" y="74" width="174" height="340" rx="21" fill="#3D7DDD"/>
<rect x="217" y="84" width="158" height="323" rx="12" fill="white"/>
<path d="M340.969 185.747C340.961 185.422 340.918 185.099 340.838 184.783C340.807 184.671 340.744 184.563 340.703 184.45C340.609 184.193 340.523 183.941 340.388 183.707C340.316 183.586 340.217 183.487 340.131 183.37C339.987 183.167 339.848 182.96 339.673 182.784C339.569 182.685 339.434 182.604 339.322 182.51C339.146 182.366 338.984 182.208 338.782 182.086C338.764 182.073 338.741 182.073 338.718 182.059L338.683 182.032L298.277 159.566C297.609 159.196 296.859 159.001 296.095 159C295.332 158.999 294.58 159.192 293.912 159.561L253.318 182.028C253.304 182.041 253.29 182.059 253.268 182.073L253.223 182.091C253.065 182.181 252.949 182.312 252.8 182.42C252.638 182.541 252.467 182.649 252.323 182.789C252.188 182.928 252.084 183.09 251.967 183.248C251.846 183.406 251.711 183.545 251.612 183.716C251.495 183.91 251.432 184.13 251.346 184.342C251.283 184.491 251.203 184.63 251.162 184.792C251.084 185.102 251.041 185.419 251.031 185.738C251.027 185.814 251 185.882 251 185.963V221.99C251 223.625 251.887 225.133 253.318 225.925L293.719 248.378L293.723 248.383L293.732 248.387L293.822 248.437C294.015 248.545 294.227 248.603 294.43 248.68C294.574 248.738 294.713 248.815 294.866 248.855C295.613 249.048 296.396 249.048 297.143 248.855C297.292 248.815 297.431 248.738 297.58 248.68C297.782 248.603 297.994 248.549 298.187 248.437L298.277 248.387L298.286 248.383L298.291 248.378L338.692 225.925C340.114 225.133 341 223.625 341 221.99V185.963C341 185.886 340.973 185.823 340.969 185.747ZM295.874 203.405L264.761 185.994L277.19 179.115L307.943 196.696L295.874 203.405ZM296.09 168.652L327.235 185.972L317.137 191.586L286.401 174.014L296.09 168.652ZM300.5 236.852L300.509 211.284L314 203.729V217.488L323 212.986V198.691L332 193.653V219.338L300.5 236.852Z" fill="#3D7DDD"/>
<rect x="257" y="78" width="78" height="15" rx="6" fill="#3D7DDD"/>
<circle cx="294" cy="375" r="16" fill="black"/>
</svg>
